<?xml version="1.0" encoding="UTF-8"?>
<svg xmlns="http://www.w3.org/2000/svg" xmlns:xlink="http://www.w3.org/1999/xlink" width="32px" height="32px"
    viewBox="0 0 32 32" version="1.1">
    <g id="surface1">
        <path style=" stroke:none;fill-rule:nonzero;fill:rgb(100%,70.980394%,26.666668%);fill-opacity:1;"
            d="M 21.453125 19.617188 C 21.441406 19 21.433594 18.214844 21.425781 17.449219 C 21.421875 17.230469 21.417969 17.015625 21.417969 16.804688 L 21.417969 16.75 C 21.414062 16.410156 21.410156 16.082031 21.410156 15.785156 C 21.410156 15.75 21.410156 15.710938 21.40625 15.671875 C 21.40625 15.320312 21.402344 15.023438 21.40625 14.8125 C 21.402344 13.765625 21.398438 11.675781 21.398438 11.675781 C 21.398438 11.675781 21.390625 11.667969 21.375 11.65625 C 21.371094 11.65625 21.371094 11.65625 21.367188 11.652344 L 19.535156 11.652344 C 19.445312 11.652344 19.351562 11.65625 19.261719 11.664062 C 19.246094 11.664062 19.226562 11.664062 19.207031 11.667969 C 19.121094 11.671875 19.035156 11.683594 18.949219 11.695312 C 18.933594 11.695312 18.917969 11.699219 18.902344 11.699219 C 18.886719 11.703125 18.875 11.707031 18.859375 11.707031 C 18.792969 11.71875 18.726562 11.730469 18.660156 11.742188 C 18.648438 11.746094 18.640625 11.746094 18.628906 11.75 C 18.558594 11.765625 18.484375 11.785156 18.414062 11.804688 C 18.402344 11.808594 18.390625 11.808594 18.378906 11.8125 C 18.363281 11.816406 18.34375 11.824219 18.328125 11.828125 C 18.246094 11.851562 18.164062 11.878906 18.082031 11.90625 C 18.074219 11.910156 18.066406 11.914062 18.054688 11.917969 C 17.980469 11.945312 17.90625 11.976562 17.832031 12.007812 C 17.820312 12.011719 17.808594 12.019531 17.792969 12.023438 C 17.71875 12.058594 17.644531 12.09375 17.570312 12.132812 C 17.554688 12.140625 17.539062 12.148438 17.523438 12.15625 C 17.375 12.238281 17.234375 12.328125 17.097656 12.425781 C 17.09375 12.425781 17.09375 12.425781 17.089844 12.429688 C 17.078125 12.4375 17.066406 12.445312 17.050781 12.457031 C 16.984375 12.503906 16.921875 12.554688 16.859375 12.609375 C 16.847656 12.617188 16.835938 12.625 16.828125 12.636719 C 16.816406 12.644531 16.804688 12.65625 16.792969 12.664062 C 16.746094 12.707031 16.695312 12.75 16.648438 12.792969 C 16.644531 12.800781 16.640625 12.804688 16.632812 12.808594 C 16.574219 12.867188 16.515625 12.925781 16.460938 12.988281 C 16.449219 13 16.441406 13.011719 16.429688 13.023438 C 16.410156 13.046875 16.394531 13.066406 16.378906 13.085938 C 16.339844 13.128906 16.304688 13.171875 16.269531 13.214844 C 16.265625 13.222656 16.261719 13.230469 16.253906 13.234375 C 16.207031 13.296875 16.164062 13.363281 16.117188 13.425781 C 16.113281 13.4375 16.105469 13.449219 16.097656 13.457031 C 16.054688 13.527344 16.011719 13.597656 15.96875 13.667969 C 15.960938 13.683594 15.953125 13.695312 15.949219 13.707031 C 15.90625 13.78125 15.867188 13.859375 15.832031 13.933594 C 15.6875 14.246094 15.585938 14.582031 15.539062 14.933594 L 15.511719 15.0625 C 15.128906 15.148438 14.792969 15.351562 14.550781 15.628906 L 17.308594 15.628906 C 17.328125 15.648438 17.347656 15.667969 17.363281 15.691406 L 17.472656 13.152344 L 17.519531 13.148438 C 18.148438 13.0625 18.734375 13.472656 18.828125 14.0625 L 19.019531 17.210938 C 19.03125 17.714844 18.789062 18.195312 18.363281 18.5 L 17.945312 18.671875 L 16.550781 19.238281 L 16.421875 19.292969 L 15.09375 19.832031 L 14.570312 20.046875 L 14.355469 21.261719 C 14.394531 21.277344 14.429688 21.296875 14.464844 21.3125 C 14.527344 21.335938 14.589844 21.363281 14.652344 21.390625 C 14.699219 21.414062 14.742188 21.4375 14.785156 21.460938 C 14.835938 21.488281 14.886719 21.511719 14.933594 21.539062 C 14.972656 21.558594 15.003906 21.582031 15.042969 21.601562 C 15.097656 21.636719 15.152344 21.667969 15.207031 21.703125 C 16.347656 22.457031 17.09375 23.703125 17.09375 25.113281 L 17.09375 25.117188 C 17.09375 25.214844 17.089844 25.316406 17.082031 25.414062 C 17.078125 25.429688 17.078125 25.445312 17.078125 25.460938 C 17.070312 25.554688 17.058594 25.648438 17.042969 25.738281 C 17.039062 25.757812 17.035156 25.777344 17.03125 25.796875 C 17.015625 25.890625 16.996094 25.980469 16.976562 26.066406 C 16.972656 26.082031 16.96875 26.097656 16.964844 26.113281 C 16.941406 26.195312 16.917969 26.273438 16.890625 26.355469 C 16.886719 26.371094 16.882812 26.382812 16.878906 26.398438 C 16.847656 26.480469 16.816406 26.5625 16.78125 26.644531 C 16.773438 26.667969 16.765625 26.6875 16.753906 26.710938 C 16.71875 26.789062 16.683594 26.867188 16.644531 26.941406 C 16.632812 26.960938 16.621094 26.984375 16.609375 27.003906 C 16.570312 27.078125 16.53125 27.148438 16.484375 27.21875 C 16.476562 27.234375 16.464844 27.25 16.453125 27.269531 C 16.410156 27.335938 16.367188 27.398438 16.320312 27.460938 C 16.308594 27.480469 16.292969 27.5 16.277344 27.519531 C 16.226562 27.585938 16.175781 27.652344 16.121094 27.71875 C 16.101562 27.738281 16.085938 27.753906 16.070312 27.773438 C 16.058594 27.789062 16.042969 27.804688 16.03125 27.820312 C 17.484375 27.371094 18.75 26.539062 19.691406 25.453125 C 20.417969 24.617188 20.953125 23.632812 21.234375 22.554688 C 21.304688 22.292969 21.359375 22.027344 21.398438 21.753906 C 21.40625 21.683594 21.417969 21.609375 21.421875 21.535156 C 21.433594 21.445312 21.441406 21.355469 21.449219 21.261719 C 21.460938 21.097656 21.464844 20.933594 21.464844 20.769531 C 21.464844 20.679688 21.460938 20.257812 21.453125 19.671875 Z M 21.453125 19.617188 " />
        <path style=" stroke:none;fill-rule:nonzero;fill:rgb(100%,70.980394%,26.666668%);fill-opacity:1;"
            d="M 6.527344 18.640625 C 5.652344 18.089844 4.496094 18.769531 4.644531 19.75 L 4.925781 21.644531 L 8.222656 19.710938 Z M 6.527344 18.640625 " />
        <path style=" stroke:none;fill-rule:nonzero;fill:rgb(100%,70.980394%,26.666668%);fill-opacity:1;"
            d="M 15.078125 0.96875 L 14.8125 3.699219 L 19.355469 2.734375 L 17.035156 0.339844 C 16.367188 -0.332031 15.164062 0.0546875 15.078125 0.96875 Z M 15.078125 0.96875 " />
        <path style=" stroke:none;fill-rule:nonzero;fill:rgb(100%,70.980394%,26.666668%);fill-opacity:1;"
            d="M 3.96875 20.023438 C 3.386719 19.199219 2.042969 19.414062 1.78125 20.367188 L 1.296875 22.125 L 5.039062 21.535156 Z M 3.96875 20.023438 " />
        <path style=" stroke:none;fill-rule:nonzero;fill:rgb(100%,70.980394%,26.666668%);fill-opacity:1;"
            d="M 12.839844 2.65625 C 11.757812 2.46875 10.949219 3.570312 11.523438 4.449219 L 12.882812 6.542969 L 15.410156 3.105469 Z M 12.839844 2.65625 " />
        <path style=" stroke:none;fill-rule:nonzero;fill:rgb(100%,70.980394%,26.666668%);fill-opacity:1;"
            d="M 9.9375 8.496094 L 11.902344 10.117188 L 13.21875 6.125 L 10.625 6.417969 C 9.535156 6.542969 9.113281 7.816406 9.9375 8.5 Z M 9.9375 8.496094 " />
        <path style=" stroke:none;fill-rule:evenodd;fill:rgb(100%,46.666667%,36.470589%);fill-opacity:1;"
            d="M 21.789062 28.363281 C 22.734375 27.597656 23.335938 26.464844 23.335938 25.199219 C 23.335938 23.769531 22.566406 22.507812 21.398438 21.757812 C 21.359375 22.027344 21.304688 22.296875 21.234375 22.554688 C 21.222656 22.605469 21.207031 22.652344 21.191406 22.699219 C 20.902344 23.71875 20.382812 24.652344 19.691406 25.449219 C 19.691406 25.449219 19.691406 25.453125 19.691406 25.453125 C 18.75 26.539062 17.480469 27.371094 16.027344 27.820312 C 15.929688 27.851562 15.832031 27.878906 15.730469 27.902344 C 15.738281 27.910156 15.742188 27.917969 15.746094 27.921875 C 15.652344 27.933594 15.570312 27.953125 15.515625 28.003906 C 15.582031 28.140625 17.480469 32 17.480469 32 L 23.605469 31.996094 C 23.605469 31.996094 22.335938 29.5 21.789062 28.363281 Z M 21.789062 28.363281 " />
        <path style=" stroke:none;fill-rule:nonzero;fill:rgb(25.490198%,24.705882%,52.941179%);fill-opacity:1;"
            d="M 29.667969 10.445312 L 29.214844 10.445312 C 28.695312 9.644531 28.03125 9.164062 27.308594 9.164062 L 25.207031 9.164062 C 26.867188 9.164062 28.210938 11.691406 28.210938 14.808594 C 28.210938 17.925781 26.867188 20.453125 25.207031 20.453125 L 27.308594 20.453125 C 28.03125 20.453125 28.695312 19.972656 29.214844 19.171875 L 29.667969 19.171875 C 30.949219 19.171875 31.988281 17.21875 31.988281 14.808594 C 31.988281 12.398438 30.949219 10.445312 29.667969 10.445312 Z M 29.667969 10.445312 " />
        <path style=" stroke:none;fill-rule:nonzero;fill:rgb(14.509805%,12.941177%,27.843139%);fill-opacity:1;"
            d="M 28.210938 14.808594 C 28.210938 11.691406 26.867188 9.164062 25.207031 9.164062 C 23.550781 9.164062 22.203125 11.691406 22.203125 14.808594 C 22.203125 17.925781 23.550781 20.453125 25.207031 20.453125 C 26.867188 20.453125 28.210938 17.925781 28.210938 14.808594 Z M 28.210938 14.808594 " />
        <path style=" stroke:none;fill-rule:nonzero;fill:rgb(100%,46.666667%,36.470589%);fill-opacity:1;"
            d="M 21.746094 11.652344 L 21.367188 11.652344 C 21.367188 11.652344 21.363281 11.652344 21.363281 11.648438 L 21.375 11.648438 L 21.375 11.335938 L 21.445312 11.335938 Z M 21.746094 11.652344 " />
        <path style=" stroke:none;fill-rule:evenodd;fill:rgb(100%,46.666667%,36.470589%);fill-opacity:1;"
            d="M 23.382812 4.015625 C 23.242188 3.996094 23.097656 3.976562 22.953125 3.960938 C 22 2.609375 20.367188 1.71875 18.507812 1.71875 C 16.382812 1.71875 14.550781 2.886719 13.691406 4.574219 C 13.632812 4.660156 13.585938 4.75 13.542969 4.847656 C 11.941406 8.457031 10.753906 12.308594 9.558594 16.152344 L 8.203125 18.886719 C 6.867188 20.703125 4.539062 21.847656 2.039062 21.726562 C 1.730469 21.710938 1.425781 21.675781 1.128906 21.625 C 0.445312 21.5 -0.140625 22.089844 0.046875 22.722656 C 0.09375 22.875 0.144531 23.027344 0.203125 23.179688 L 0.199219 23.179688 C 0.398438 23.414062 0.589844 23.640625 0.785156 23.847656 C 0.789062 23.855469 0.796875 23.863281 0.804688 23.871094 C 1.769531 24.921875 2.683594 25.632812 3.582031 26.128906 C 4.304688 26.53125 5.019531 26.792969 5.742188 26.980469 C 5.855469 27.011719 5.972656 27.039062 6.085938 27.066406 C 6.125 27.074219 6.160156 27.082031 6.199219 27.089844 C 6.320312 27.117188 6.441406 27.144531 6.566406 27.167969 C 6.597656 27.175781 6.628906 27.179688 6.664062 27.1875 C 6.882812 27.230469 7.105469 27.265625 7.328125 27.304688 L 8.800781 30.496094 L 9.527344 32 L 15 31.996094 L 15.734375 31.996094 C 15.734375 31.996094 14.832031 30.1875 14.25 29.007812 C 15.914062 28.402344 17.09375 26.886719 17.09375 25.113281 C 17.09375 23.378906 15.964844 21.890625 14.355469 21.261719 L 14.570312 20.046875 L 15.09375 19.832031 L 16.421875 19.292969 L 16.550781 19.238281 L 17.945312 18.671875 L 18.363281 18.5 C 18.789062 18.195312 19.03125 17.714844 19.019531 17.210938 L 18.828125 14.0625 C 18.734375 13.472656 18.148438 13.0625 17.519531 13.148438 L 17.472656 13.152344 L 17.363281 15.691406 C 17.347656 15.667969 17.328125 15.648438 17.308594 15.628906 L 12.933594 15.628906 L 12.933594 13.933594 L 15.832031 13.933594 C 16.457031 12.578125 17.894531 11.652344 19.535156 11.652344 L 21.367188 11.652344 C 21.367188 11.652344 21.363281 11.652344 21.363281 11.648438 L 21.375 11.648438 C 21.40625 11.652344 21.433594 11.652344 21.457031 11.652344 C 21.503906 11.65625 21.53125 11.65625 21.53125 11.65625 L 22.832031 11.65625 C 24.894531 11.65625 26.632812 10.214844 26.890625 8.292969 C 27.171875 6.207031 25.605469 4.296875 23.382812 4.015625 Z M 23.382812 4.015625 " />
        <path style=" stroke:none;fill-rule:nonzero;fill:rgb(14.509805%,12.941177%,27.843139%);fill-opacity:1;"
            d="M 19.183594 6.503906 C 18.503906 6.621094 17.851562 6.160156 17.71875 5.476562 C 17.585938 4.792969 18.03125 4.152344 18.71875 4.042969 C 19.417969 3.925781 20.050781 4.367188 20.179688 5.0625 C 20.308594 5.75 19.867188 6.390625 19.183594 6.503906 Z M 19.183594 6.503906 " />
        <path style=" stroke:none;fill-rule:nonzero;fill:rgb(100%,100%,100%);fill-opacity:1;"
            d="M 18.480469 5.515625 C 18.203125 5.515625 17.976562 5.308594 17.972656 5.046875 C 17.96875 4.785156 18.191406 4.574219 18.46875 4.574219 C 18.753906 4.574219 18.972656 4.773438 18.972656 5.039062 C 18.976562 5.300781 18.757812 5.511719 18.480469 5.515625 Z M 18.480469 5.515625 " />
        <path style=" stroke:none;fill-rule:nonzero;fill:rgb(25.490198%,24.705882%,52.941179%);fill-opacity:1;"
            d="M 17.367188 15.628906 L 17.4375 13.933594 L 12.933594 13.933594 L 12.933594 15.628906 Z M 17.367188 15.628906 " />
        <path style=" stroke:none;fill-rule:nonzero;fill:rgb(25.490198%,24.705882%,52.941179%);fill-opacity:1;"
            d="M 25.730469 13.933594 L 18.796875 13.933594 C 18.8125 13.976562 18.820312 14.019531 18.828125 14.0625 L 18.921875 15.628906 L 25.730469 15.628906 C 25.980469 15.628906 26.179688 15.25 26.179688 14.78125 C 26.179688 14.3125 25.980469 13.933594 25.730469 13.933594 Z M 25.730469 13.933594 " />
        <path style=" stroke:none;fill-rule:nonzero;fill:rgb(25.490198%,24.705882%,52.941179%);fill-opacity:1;"
            d="M 10.695312 9.164062 L 8.597656 9.164062 C 10.253906 9.164062 11.597656 11.691406 11.597656 14.808594 C 11.597656 17.925781 10.253906 20.453125 8.597656 20.453125 L 10.695312 20.453125 C 12.355469 20.453125 13.699219 17.925781 13.699219 14.808594 C 13.699219 11.691406 12.355469 9.164062 10.695312 9.164062 Z M 10.695312 9.164062 " />
        <path style=" stroke:none;fill-rule:nonzero;fill:rgb(14.509805%,12.941177%,27.843139%);fill-opacity:1;"
            d="M 11.597656 14.808594 C 11.597656 11.691406 10.253906 9.164062 8.597656 9.164062 C 6.9375 9.164062 5.59375 11.691406 5.59375 14.808594 C 5.59375 17.925781 6.9375 20.453125 8.597656 20.453125 C 10.253906 20.453125 11.597656 17.925781 11.597656 14.808594 Z M 11.597656 14.808594 " />
        <path style=" stroke:none;fill-rule:nonzero;fill:rgb(26.274511%,25.882354%,53.725493%);fill-opacity:1;"
            d="M 8.386719 10.445312 L 6.761719 10.445312 C 8.042969 10.445312 9.082031 12.398438 9.082031 14.808594 C 9.082031 17.21875 8.042969 19.171875 6.761719 19.171875 L 8.386719 19.171875 C 9.667969 19.171875 10.707031 17.21875 10.707031 14.808594 C 10.707031 12.398438 9.667969 10.445312 8.386719 10.445312 Z M 8.386719 10.445312 " />
        <path style=" stroke:none;fill-rule:nonzero;fill:rgb(14.509805%,12.941177%,27.843139%);fill-opacity:1;"
            d="M 9.082031 14.808594 C 9.082031 12.398438 8.042969 10.445312 6.761719 10.445312 C 5.480469 10.445312 4.441406 12.398438 4.441406 14.808594 C 4.441406 17.21875 5.480469 19.171875 6.761719 19.171875 C 8.042969 19.171875 9.082031 17.21875 9.082031 14.808594 Z M 9.082031 14.808594 " />
        <path style=" stroke:none;fill-rule:nonzero;fill:rgb(100%,46.666667%,36.470589%);fill-opacity:1;"
            d="M 24.6875 14.128906 L 24.6875 14.125 C 24.644531 13.835938 24.484375 13.582031 24.234375 13.410156 C 23.988281 13.238281 23.683594 13.164062 23.378906 13.207031 L 23.332031 13.210938 L 23.246094 15.628906 L 21.40625 15.628906 L 21.40625 15.675781 C 21.40625 15.675781 21.410156 15.75 21.410156 15.785156 C 21.410156 16.082031 21.414062 16.410156 21.417969 16.75 L 21.417969 16.804688 C 21.417969 17.015625 21.421875 17.230469 21.425781 17.449219 C 21.433594 18.214844 21.441406 19 21.453125 19.617188 L 21.453125 19.675781 L 24.234375 18.566406 L 24.246094 18.5625 C 24.667969 18.253906 24.914062 17.773438 24.902344 17.269531 Z M 24.6875 14.128906 " />
        <path style=" stroke:none;fill-rule:nonzero;fill:rgb(60.000002%,30.19608%,41.568628%);fill-opacity:1;"
            d="M 22.707031 8.90625 C 22.597656 8.90625 22.492188 8.894531 22.390625 8.871094 C 21.929688 8.765625 21.609375 8.453125 21.410156 8.1875 C 20.773438 8.761719 19.875 8.707031 19.425781 8.570312 C 19.261719 8.519531 19.171875 8.355469 19.226562 8.199219 C 19.277344 8.046875 19.453125 7.960938 19.617188 8.011719 C 19.664062 8.023438 20.679688 8.316406 21.1875 7.511719 C 21.246094 7.414062 21.363281 7.359375 21.480469 7.367188 C 21.601562 7.375 21.703125 7.449219 21.746094 7.554688 C 21.75 7.558594 22.019531 8.1875 22.539062 8.300781 C 22.863281 8.371094 23.25 8.226562 23.683594 7.863281 C 23.742188 7.8125 23.820312 7.785156 23.894531 7.789062 L 26.730469 7.816406 C 26.902344 7.816406 27.039062 7.949219 27.039062 8.113281 C 27.035156 8.273438 26.894531 8.398438 26.722656 8.402344 L 24.007812 8.375 C 23.558594 8.726562 23.121094 8.90625 22.707031 8.90625 Z M 22.707031 8.90625 " />
        <path style=" stroke:none;fill-rule:nonzero;fill:rgb(25.490198%,24.705882%,52.941179%);fill-opacity:1;"
            d="M 7.644531 14.804688 C 7.644531 15.265625 7.4375 15.640625 7.179688 15.640625 C 7.132812 15.640625 6.832031 15.640625 6.503906 15.640625 C 6.011719 15.636719 5.617188 15.265625 5.617188 14.804688 C 5.617188 14.339844 6.015625 13.96875 6.507812 13.96875 L 7.179688 13.96875 C 7.4375 13.96875 7.644531 14.34375 7.644531 14.804688 Z M 7.644531 14.804688 " />
        <path style=" stroke:none;fill-rule:nonzero;fill:rgb(60.000002%,30.19608%,41.568628%);fill-opacity:1;"
            d="M 25.132812 5.796875 C 25.046875 5.59375 24.84375 5.476562 24.683594 5.539062 C 24.523438 5.601562 24.46875 5.816406 24.554688 6.019531 C 24.644531 6.222656 24.847656 6.339844 25.003906 6.277344 C 25.164062 6.21875 25.222656 6.003906 25.132812 5.796875 Z M 25.132812 5.796875 " />
        <path style=" stroke:none;fill-rule:nonzero;fill:rgb(100%,70.980394%,26.666668%);fill-opacity:1;"
            d="M 7.84375 28.421875 L 7.761719 28.242188 L 7.328125 27.304688 C 7.105469 27.265625 6.882812 27.230469 6.664062 27.1875 C 6.351562 27.128906 6.046875 27.058594 5.742188 26.980469 C 5.472656 26.910156 5.207031 26.828125 4.941406 26.734375 C 4.929688 26.730469 4.917969 26.726562 4.90625 26.722656 C 4.835938 26.699219 4.761719 26.671875 4.6875 26.644531 C 4.667969 26.632812 4.644531 26.625 4.621094 26.617188 C 4.558594 26.59375 4.496094 26.566406 4.4375 26.542969 C 4.410156 26.53125 4.382812 26.519531 4.351562 26.507812 C 4.296875 26.480469 4.238281 26.457031 4.179688 26.429688 C 4.152344 26.417969 4.121094 26.402344 4.09375 26.390625 C 4.035156 26.359375 3.972656 26.332031 3.914062 26.300781 C 3.886719 26.289062 3.863281 26.277344 3.835938 26.261719 C 3.75 26.21875 3.667969 26.175781 3.582031 26.128906 C 3.425781 26.042969 3.273438 25.949219 3.117188 25.851562 C 2.933594 25.734375 2.75 25.609375 2.566406 25.476562 C 2.132812 25.15625 1.691406 24.773438 1.242188 24.324219 C 1.097656 24.179688 0.953125 24.03125 0.804688 23.871094 C 0.796875 23.863281 0.789062 23.855469 0.785156 23.847656 C 0.589844 23.640625 0.398438 23.414062 0.199219 23.179688 C 1.191406 25.835938 3.667969 27.863281 6.746094 28.324219 L 6.753906 28.324219 C 7.042969 28.367188 7.335938 28.398438 7.632812 28.410156 Z M 7.84375 28.421875 " />
        <path style=" stroke:none;fill-rule:nonzero;fill:rgb(100%,70.980394%,26.666668%);fill-opacity:1;"
            d="M 22.027344 32 C 22.027344 32 22.292969 31.277344 23.167969 31.277344 C 24.046875 31.277344 24.355469 32 24.355469 32 Z M 22.027344 32 " />
        <path style=" stroke:none;fill-rule:nonzero;fill:rgb(100%,70.980394%,26.666668%);fill-opacity:1;"
            d="M 19.894531 32 C 19.894531 32 20.15625 31.277344 21.035156 31.277344 C 21.914062 31.277344 22.21875 32 22.21875 32 Z M 19.894531 32 " />
        <path style=" stroke:none;fill-rule:nonzero;fill:rgb(100%,70.980394%,26.666668%);fill-opacity:1;"
            d="M 13.925781 32 C 13.925781 32 14.1875 31.277344 15.066406 31.277344 C 15.945312 31.277344 16.253906 32 16.253906 32 Z M 13.925781 32 " />
        <path style=" stroke:none;fill-rule:nonzero;fill:rgb(100%,70.980394%,26.666668%);fill-opacity:1;"
            d="M 11.792969 32 C 11.792969 32 12.054688 31.277344 12.933594 31.277344 C 13.8125 31.277344 14.117188 32 14.117188 32 Z M 11.792969 32 " />
    </g>
</svg>